<?xml version="1.0" encoding="utf-8"?>
<!-- Generator: Adobe Illustrator 25.1.0, SVG Export Plug-In . SVG Version: 6.00 Build 0)  -->
<svg version="1.1" id="Layer_1" xmlns="http://www.w3.org/2000/svg" xmlns:xlink="http://www.w3.org/1999/xlink" x="0px" y="0px"
	 viewBox="0 0 256 256" style="enable-background:new 0 0 256 256;" xml:space="preserve">
<style type="text/css">
	.st0{fill:#427D9D;}
</style>
<g>
	<path class="st0" d="M128,256C57.3,256,0,198.7,0,128S57.3,0,128,0s128,57.3,128,128S198.7,256,128,256z M193.7,82.7
		c-3-3-8-3-11.1,0L108,157.3l-34.7-34.7c-3-3-8-3-11.1,0c-3,3-3,8,0,11.1l39.3,39.3c0.2,0.4,0.4,0.8,0.8,1.2
		c1.5,1.5,3.7,2.3,5.7,2.3c2.1,0,4.1-0.7,5.7-2.3c0.3-0.3,0.5-0.8,0.8-1.2l79.2-79.2C196.8,90.7,196.8,85.7,193.7,82.7z"/>
</g>
</svg>
